HIERARCHY
ROOT Hip
{
  OFFSET 0.0 0.0 0.0
  CHANNELS 6 Xposition Yposition Zposition Xrotation Yrotation Zrotation
  JOINT LowerSpine
  {
    OFFSET 0.0 0.061367 -0.03653
    CHANNELS 3 Xrotation Yrotation Zrotation
    JOINT MiddleSpine
    {
      OFFSET 0.0 0.056002 0.002633
      CHANNELS 3 Xrotation Yrotation Zrotation
      JOINT Chest
      {
        OFFSET 0.0 0.069296 -0.013882
        CHANNELS 3 Xrotation Yrotation Zrotation
        JOINT Neck
        {
          OFFSET 0.0 0.156156 -0.002923
          CHANNELS 3 Xrotation Yrotation Zrotation
          JOINT Head
          {
            OFFSET 0.0 0.088183 0.023986
            CHANNELS 3 Xrotation Yrotation Zrotation
            End Site
            {
              OFFSET 1e-06 0.123215 0.003678
            }
          }
        }
        JOINT LClavicle
        {
          OFFSET 0.014189 0.150698 0.046467
          CHANNELS 3 Xrotation Yrotation Zrotation
          JOINT LShoulder
          {
            OFFSET 0.082893 0.021616 -0.034976
            CHANNELS 3 Xrotation Yrotation Zrotation
            JOINT LForearm
            {
              OFFSET 0.195645 -0.000695 -0.001695
              CHANNELS 3 Xrotation Yrotation Zrotation
              JOINT LHand
              {
                OFFSET 0.163209 0.000474 -0.000977
                CHANNELS 3 Xrotation Yrotation Zrotation
                End Site
                {
                  OFFSET 0.0 0.006864 0.0
                }
              }
            }
          }
        }
        JOINT RClavicle
        {
          OFFSET -0.014189 0.150698 0.046467
          CHANNELS 3 Xrotation Yrotation Zrotation
          JOINT RShoulder
          {
            OFFSET -0.082908 0.021619 -0.034982
            CHANNELS 3 Xrotation Yrotation Zrotation
            JOINT RForearm
            {
              OFFSET -0.195645 -0.000695 -0.001695
              CHANNELS 3 Xrotation Yrotation Zrotation
              JOINT RHand
              {
                OFFSET -0.163209 0.000474 -0.000977
                CHANNELS 3 Xrotation Yrotation Zrotation
                End Site
                {
                  OFFSET 0.0 0.006864 0.0
                }
              }
            }
          }
        }
      }
    }
  }
  JOINT RThigh
  {
    OFFSET -0.072558 0.02774 -0.005953
    CHANNELS 3 Xrotation Yrotation Zrotation
    JOINT RShin
    {
      OFFSET -0.005253 -0.285537 0.0
      CHANNELS 3 Xrotation Yrotation Zrotation
      JOINT RFoot
      {
        OFFSET 0.0 -0.28038 0.0
        CHANNELS 3 Xrotation Yrotation Zrotation
        JOINT RToe
        {
          OFFSET 0.0 -0.030816 0.064441
          CHANNELS 3 Xrotation Yrotation Zrotation
          End Site
          {
            OFFSET 0.0 0.0 0.043231
          }
        }
      }
    }
  }
  JOINT LThigh
  {
    OFFSET 0.072557 0.027741 -0.005953
    CHANNELS 3 Xrotation Yrotation Zrotation
    JOINT LShin
    {
      OFFSET 0.005253 -0.285539 0.0
      CHANNELS 3 Xrotation Yrotation Zrotation
      JOINT LFoot
      {
        OFFSET 0.0 -0.28038 0.0
        CHANNELS 3 Xrotation Yrotation Zrotation
        JOINT LToe
        {
          OFFSET 0.0 -0.030816 0.064441
          CHANNELS 3 Xrotation Yrotation Zrotation
          End Site
          {
            OFFSET 0.0 0.0 0.043231
          }
        }
      }
    }
  }
}
MOTION
Frames: 9
Frame Time: 0.03333333333333333
-0.016301 0.57877 0.008453 6.73224 0.224356 -2.020227 -1.457204 -0.058747 -0.266207 -0.545942 1.284346 -0.4496 -5.114695 1.971428 0.242458 -2.833822 -0.102175 0.181554 0.028734 0.068832 0.018512 -0.960346 -0.86109 -10.384704 26.08193 -18.308685 -46.292965 10.745109 -26.806595 -0.635065 0.092453 0.107357 -0.022077 -1.132328 1.277071 11.607786 20.458094 17.572258 46.323822 9.150965 23.43084 -0.343583 0.168967 -0.117908 -0.012879 -9.816136 -3.635223 -4.496913 9.173279 -3.878078 2.581115 -1.7366 2.028021 0.806473 0.152083 0.369283 -0.015897 -5.361312 6.264586 8.687912 6.01903 6.392006 -4.163654 -2.018605 -0.677065 -0.29595 -0.015363 -0.033793 -0.042563 
-0.004815 0.579141 -0.002113 7.34992 1.011542 -2.125548 -1.103119 -0.180194 -0.147784 -0.882353 1.198742 0.112147 -5.102315 1.651643 1.634369 -2.274705 0.154564 -0.334533 0.015415 0.045344 -0.06067 -0.632412 -1.412948 -10.427021 25.912174 -17.411163 -46.459335 10.00597 -28.371716 0.861699 0.09975 0.118345 -0.108778 -1.186834 1.104769 10.662892 19.904858 14.305653 45.774567 7.769094 23.745943 -1.739925 0.025337 -0.223118 -0.009505 -12.445649 -4.380412 -6.208892 9.729284 -5.176682 3.756144 -0.788154 1.770722 0.456938 0.096357 0.356189 0.05574 -6.099683 5.310137 7.188517 5.345436 4.785476 -3.256101 -2.169146 -0.837694 -0.143695 0.01247 -0.130791 -0.005963 
-0.005756 0.577444 0.00108 8.392859 3.46578 -1.975814 -1.117937 -0.336317 -0.266137 -0.963935 1.166668 0.220827 -5.642049 1.445499 2.291407 -2.087125 0.259112 -0.444871 0.016419 0.073176 -0.047492 -0.332148 -1.061511 -11.385765 26.298058 -16.017382 -46.586533 9.068527 -28.004799 0.514834 0.07147 0.100728 -0.096128 -0.925424 0.639232 11.052229 19.886778 12.254424 44.93977 5.714674 23.985252 -1.617659 0.00909 -0.204538 -0.010619 -13.185052 -4.871406 -6.890096 8.899401 -5.24372 3.745592 -0.887678 1.687027 0.409726 0.079457 0.331438 0.053914 -6.23177 5.248415 6.482552 5.611591 4.761539 -2.06747 -2.327646 -0.677167 -0.124248 0.010289 -0.091636 0.002259 
-0.003104 0.578828 0.003495 8.498844 4.456259 -2.18302 -0.966338 -0.449724 -0.2555 -0.936378 1.323352 0.299053 -5.298535 2.066484 2.001742 -1.749606 0.330477 -0.452779 0.025292 -0.002853 -0.045649 -0.302824 -0.921395 -12.127757 25.052374 -15.591505 -47.320007 7.603446 -26.014067 0.120638 0.068403 0.107772 -0.084012 -0.826029 0.301007 11.114972 16.199831 11.330665 45.13694 3.590821 22.674568 -1.510064 -0.062091 -0.166177 -0.019112 -12.669538 -4.260383 -6.126108 8.385568 -4.576441 3.055254 -1.037769 1.432066 0.280842 0.043257 0.314971 0.076522 -5.527231 5.557151 6.325889 5.458483 4.771104 -1.635269 -2.717999 -0.454957 0.07154 0.021856 -0.085489 -0.006056 
-0.005656 0.579777 0.006804 8.140285 4.714943 -2.27973 -0.920327 -0.533278 -0.231392 -0.916748 1.430214 0.383404 -4.969273 2.70065 2.085353 -1.592272 0.354533 -0.452554 0.027562 -0.043957 -0.042296 -0.291107 -0.826405 -12.607745 23.959471 -15.141767 -48.189121 6.481863 -25.023964 -0.19387 0.069782 0.11846 -0.080757 -0.749694 -0.011759 10.969893 12.176723 10.472359 45.048107 1.145224 21.382399 -1.652367 -0.089122 -0.156701 -0.023485 -11.799182 -3.456004 -5.209073 7.668422 -3.953906 2.567521 -1.372365 1.33419 0.209163 0.037966 0.320845 0.085978 -4.85072 5.103263 6.014525 4.863846 4.407488 -1.348539 -2.975485 -0.25791 0.197168 0.030953 -0.092482 -0.013202 
-0.008093 0.580229 0.009014 8.108996 4.367973 -2.357119 -0.966092 -0.614021 -0.235391 -0.954773 1.452024 0.424431 -4.767983 3.085373 2.170035 -1.549836 0.364205 -0.436997 0.029729 -0.060773 -0.039066 -0.256396 -0.777492 -12.908374 23.332449 -15.079007 -48.926723 5.77125 -24.351295 -0.399642 0.074676 0.132141 -0.083319 -0.685269 -0.239732 10.740709 9.144351 9.798219 44.681194 -0.776364 20.908033 -2.093002 -0.09612 -0.160324 -0.026132 -11.284773 -2.960455 -4.471142 6.757568 -3.569124 2.289664 -1.571892 1.35599 0.196408 0.042625 0.337462 0.089132 -4.570321 4.439835 5.930665 4.307023 3.964197 -1.185148 -3.163155 -0.06429 0.308103 0.041641 -0.103372 -0.01986 
-0.009254 0.579663 0.009218 7.960032 3.681443 -2.54282 -1.062458 -0.660843 -0.235495 -0.989962 1.479478 0.4132 -4.412822 3.300794 2.101388 -1.544154 0.369004 -0.428503 0.031645 -0.074054 -0.035191 -0.217877 -0.752793 -13.273526 22.853521 -15.390904 -49.536572 5.411066 -23.431751 -0.570264 0.078787 0.142621 -0.08306 -0.608729 -0.443204 10.476135 6.100047 9.075365 44.192802 -2.349995 21.589584 -2.770204 -0.099227 -0.164268 -0.028263 -10.559196 -2.502641 -3.841137 5.508597 -3.182109 2.028026 -1.585675 1.415099 0.22176 0.043804 0.350554 0.090379 -3.920091 3.91146 5.864683 3.621281 3.597526 -1.010086 -3.376612 0.181097 0.45092 0.053438 -0.113364 -0.025863 
-0.010779 0.57819 0.009863 7.753272 3.053916 -2.664307 -1.191379 -0.676909 -0.251989 -0.973112 1.470884 0.315407 -4.041732 3.262305 1.884947 -1.584263 0.346448 -0.42458 0.030201 -0.056593 -0.027734 -0.180063 -0.66139 -13.68134 22.523857 -15.876861 -49.751762 5.308681 -22.169668 -0.848421 0.073161 0.135583 -0.06907 -0.49769 -0.633818 10.260655 3.639123 8.785792 43.605091 -3.762444 23.263229 -3.31269 -0.066095 -0.165844 -0.024394 -9.55074 -2.001137 -3.451427 4.13137 -2.639672 1.78845 -1.585018 1.465618 0.281972 0.054259 0.344865 0.078883 -3.000895 3.387184 5.888979 3.106142 3.419404 -0.831182 -3.587432 0.443551 0.557438 0.052942 -0.101184 -0.021527 
-0.012437 0.576667 0.011224 7.562485 2.555135 -2.771179 -1.344179 -0.680178 -0.244903 -0.941512 1.462031 0.195605 -3.800492 3.130122 1.598381 -1.645716 0.324531 -0.418651 0.026501 -0.034899 -0.018564 -0.132227 -0.536537 -14.078543 22.35741 -16.515108 -49.772057 5.489379 -20.750538 -1.078307 0.063289 0.122039 -0.049617 -0.385982 -0.787263 10.105661 1.872082 8.81501 43.125225 -4.793656 25.368109 -3.666817 -0.034199 -0.156792 -0.019892 -8.530427 -1.49385 -3.290597 3.046942 -2.110534 1.523165 -1.6138 1.465972 0.333055 0.059732 0.329597 0.066783 -1.998796 2.934555 5.917575 2.548165 3.333287 -0.664649 -3.778188 0.661122 0.647317 0.047324 -0.080914 -0.014011 
